<svg version="1.1" id="Layer_1" xmlns="http://www.w3.org/2000/svg" xmlns:xlink="http://www.w3.org/1999/xlink" x="0px" y="0px"
	 width="100%" viewBox="0 0 512 512" enable-background="new 0 0 512 512" xml:space="preserve">
<path fill="#5919FA" opacity="1.000000" stroke="none" 
	d="
M283.000000,513.000000 
	C188.689560,513.000000 94.879120,513.000000 1.034338,513.000000 
	C1.034338,342.397858 1.034338,171.795731 1.034338,1.096792 
	C171.560455,1.096792 342.121002,1.096792 512.840759,1.096792 
	C512.840759,171.666550 512.840759,342.333252 512.840759,513.000000 
	C436.462372,513.000000 359.981171,513.000000 283.000000,513.000000 
M241.499985,129.927780 
	C260.159027,129.927780 278.818054,129.927811 297.477112,129.927765 
	C311.304779,129.927734 325.133270,129.998337 338.958984,129.833969 
	C340.603302,129.814438 343.620850,128.571976 343.654419,127.794968 
	C344.002441,119.739265 343.868500,111.662750 343.868500,103.655975 
	C285.708862,103.655975 228.319901,103.655975 170.893402,103.655975 
	C170.893402,206.363144 170.893402,308.718231 170.893402,411.263611 
	C180.050949,411.263611 188.811630,411.263611 198.124756,411.263611 
	C198.124756,364.481506 198.124756,317.928711 198.124756,270.780426 
	C237.713852,270.780426 276.755371,270.780426 315.919189,270.780426 
	C315.919189,261.745972 315.919189,253.312592 315.919189,244.282196 
	C276.620026,244.282196 237.560165,244.282196 198.418243,244.282196 
	C198.418243,205.941696 198.418243,168.200760 198.418243,129.927780 
	C212.610199,129.927780 226.555084,129.927780 241.499985,129.927780 
z"/>
<path fill="#FFFFFF" opacity="1.000000" stroke="none" 
	d="
M240.999969,129.927780 
	C226.555084,129.927780 212.610199,129.927780 198.418243,129.927780 
	C198.418243,168.200760 198.418243,205.941696 198.418243,244.282196 
	C237.560165,244.282196 276.620026,244.282196 315.919189,244.282196 
	C315.919189,253.312592 315.919189,261.745972 315.919189,270.780426 
	C276.755371,270.780426 237.713852,270.780426 198.124756,270.780426 
	C198.124756,317.928711 198.124756,364.481506 198.124756,411.263611 
	C188.811630,411.263611 180.050949,411.263611 170.893402,411.263611 
	C170.893402,308.718231 170.893402,206.363144 170.893402,103.655975 
	C228.319901,103.655975 285.708862,103.655975 343.868500,103.655975 
	C343.868500,111.662750 344.002441,119.739265 343.654419,127.794968 
	C343.620850,128.571976 340.603302,129.814438 338.958984,129.833969 
	C325.133270,129.998337 311.304779,129.927734 297.477112,129.927765 
	C278.818054,129.927811 260.159027,129.927780 240.999969,129.927780 
z"/>
</svg>